<?xml version="1.0" standalone="no"?>
<!DOCTYPE svg PUBLIC "-//W3C//DTD SVG 20010904//EN"
 "http://www.w3.org/TR/2001/REC-SVG-20010904/DTD/svg10.dtd">
<svg version="1.0" xmlns="http://www.w3.org/2000/svg"
 width="350.000000pt" height="350.000000pt" viewBox="0 0 350.000000 350.000000"
 preserveAspectRatio="xMidYMid meet">

<g transform="translate(0.000000,350.000000) scale(0.100000,-0.100000)"
fill="#000000" stroke="none">
<path d="M1190 2735 c0 -68 3 -83 14 -79 11 4 15 -7 17 -45 3 -40 1 -51 -13
-54 -14 -4 -15 -11 -7 -45 17 -79 44 -137 62 -136 10 1 30 -16 47 -41 35 -51
35 -52 13 -57 -14 -3 12 -35 99 -123 l117 -120 57 57 58 57 -64 65 c-46 48
-71 66 -90 66 -30 0 -106 71 -95 89 3 6 11 9 16 5 6 -3 -3 18 -20 48 -16 29
-35 72 -42 96 -9 30 -18 42 -31 42 -15 0 -18 8 -18 50 0 38 4 50 15 50 24 0
18 51 -11 94 -14 21 -41 44 -60 52 -62 26 -64 23 -64 -71z"/>
<path d="M2113 2803 c-42 -24 -73 -65 -80 -108 -4 -28 -2 -35 11 -35 13 0 16
-10 16 -50 0 -42 -3 -50 -18 -50 -13 0 -22 -12 -31 -42 -7 -24 -26 -67 -43
-97 -21 -39 -25 -52 -14 -48 29 11 17 -18 -22 -56 -21 -20 -47 -37 -59 -37
-20 0 -426 -392 -542 -525 -97 -111 -141 -229 -141 -385 0 -171 52 -288 199
-442 85 -89 97 -98 106 -82 15 27 67 80 85 86 11 3 -10 31 -72 96 -135 143
-184 270 -160 413 22 126 48 159 397 511 227 229 315 324 302 326 -22 4 -22 5
9 52 14 21 36 40 47 42 17 2 27 18 44 64 26 75 32 120 15 117 -8 -2 -12 14
-12 52 0 42 3 55 15 55 12 0 15 16 15 80 0 90 -7 96 -67 63z"/>
<path d="M1896 2574 c-50 -55 -104 -89 -138 -87 -10 1 -18 -2 -18 -7 0 -15 47
-4 92 22 37 22 86 73 112 116 13 23 1 12 -48 -44z"/>
<path d="M1670 2420 c0 -11 2 -20 4 -20 2 0 6 9 9 20 3 11 1 20 -4 20 -5 0 -9
-9 -9 -20z"/>
<path d="M1671 2363 c2 -24 2 -25 6 -5 2 12 9 20 14 17 5 -4 9 -1 9 4 0 6 -7
11 -15 11 -10 0 -15 -9 -14 -27z"/>
<path d="M2143 1920 c-38 -23 -53 -48 -53 -90 0 -85 83 -136 163 -99 76 35 74
154 -4 195 -38 19 -68 18 -106 -6z m82 -42 c33 -15 42 -51 21 -83 -26 -39 -71
-33 -95 13 -13 25 -2 54 27 71 21 13 17 13 47 -1z"/>
<path d="M1869 1903 l-115 -4 -74 -74 -74 -75 227 0 227 0 -6 25 c-9 36 -9 65
0 103 l8 32 -39 -2 c-21 -1 -90 -4 -154 -5z"/>
<path d="M1964 1576 c-28 -28 -34 -42 -34 -76 0 -34 6 -48 34 -76 28 -28 42
-34 76 -34 34 0 48 6 76 34 28 28 34 42 34 76 0 34 -6 48 -34 76 -28 28 -42
34 -76 34 -34 0 -48 -6 -76 -34z m114 -32 c42 -29 16 -104 -37 -104 -24 0 -51
32 -51 61 0 27 30 59 55 59 6 0 21 -7 33 -16z"/>
<path d="M1525 1581 l-80 -6 -18 -37 c-10 -20 -21 -53 -24 -72 l-6 -36 249 0
249 0 0 62 c0 35 4 71 9 81 8 16 -2 17 -145 15 -85 -1 -190 -4 -234 -7z"/>
<path d="M1811 1272 c-26 -22 -34 -37 -38 -74 -5 -44 -3 -50 30 -83 29 -29 42
-35 77 -35 34 0 48 6 76 34 28 28 34 42 34 76 0 34 -6 48 -34 76 -45 45 -96
47 -145 6z m110 -43 c27 -27 22 -69 -12 -88 -24 -13 -29 -13 -53 2 -30 20 -35
61 -9 89 21 24 48 23 74 -3z"/>
<path d="M1410 1255 c0 -20 26 -71 57 -112 l24 -33 122 0 122 0 0 80 0 80
-162 0 c-141 0 -163 -2 -163 -15z"/>
<path d="M1564 866 c-39 -39 -45 -89 -17 -136 54 -93 203 -48 203 60 0 36 -6
48 -36 76 -50 48 -102 48 -150 0z m112 -39 c22 -19 26 -29 20 -51 -3 -15 -18
-32 -31 -38 -34 -15 -72 3 -81 38 -6 22 -2 32 20 51 15 13 31 23 36 23 5 0 21
-10 36 -23z"/>
</g>
</svg>
